<svg xmlns="http://www.w3.org/2000/svg" viewBox="0 0 512 512" fill="#fff">
	<path d="M205.3,20.1h210.9c11,0,21,9.6,21,20.7v431.9c0,11-10,19.3-21,19.3H205.3c-5.5,0-10,4.5-10,10
		c0,5.6,4.5,10,10,10h210.9c22.1,0,41.1-17.3,41.1-39.4V40.7c0-22.1-19-40.7-41.1-40.7L205.3,0c-5.5,0-10,4.5-10,10
		S199.7,20.1,205.3,20.1z"/>
	<path d="M305.7,262.2H87.3l75.3-84c3.7-4.1,3.4-10.6-0.7-14.3c-4.1-3.7-10.5-3.5-14.2,0.7L57.3,264.9
		c-0.1,0.2-0.2,0.3-0.4,0.5c-0.2,0.3-0.5,0.6-0.7,0.9c-0.2,0.3-0.3,0.5-0.4,0.8c-0.2,0.3-0.3,0.6-0.4,0.9c-0.1,0.3-0.2,0.6-0.3,0.9
		c-0.1,0.3-0.2,0.6-0.2,0.9c-0.1,0.4-0.1,0.7-0.1,1.1c0,0.2-0.1,0.5-0.1,0.7c0,0,0,0.1,0,0.1c0,0.4,0.1,0.8,0.1,1.2
		c0,0.2,0,0.5,0.1,0.7c0.1,0.4,0.2,0.8,0.4,1.1c0.2,0.7,0.6,1.4,1,2.1c0.1,0.1,0.1,0.2,0.2,0.3c0.4,0.6,0.8,1.1,1.3,1.5l90.3,90.3
		c2,2,4.5,2.9,7.1,2.9c2.6,0,5.1-1,7.1-2.9c3.9-3.9,3.9-9.9,0-13.9L89,282.3h216.7c5.5,0,10-4.5,10-10
		C315.7,266.7,311.2,262.2,305.7,262.2z"/>
</svg>
